<?xml version="1.0" encoding="utf-8"?>
<!-- Generator: Adobe Illustrator 21.1.0, SVG Export Plug-In . SVG Version: 6.00 Build 0)  -->
<svg version="1.1" id="Слой_1" xmlns="http://www.w3.org/2000/svg" xmlns:xlink="http://www.w3.org/1999/xlink" x="0px" y="0px"
	 viewBox="0 0 86.9 88.9" style="enable-background:new 0 0 86.9 88.9;" xml:space="preserve">
<title>Artboard 5</title>
<path d="M39.6,13.7c2.6-2.6,2.6-6.8,0-9.5c-1-1-1-2.6,0-3.5s2.6-1,3.5,0c4.6,4.6,4.6,12,0,16.5c-2.6,2.6-2.6,6.8,0,9.5
	c1,1,1,2.6,0,3.5s-2.6,1-3.5,0C35.1,25.7,35.1,18.3,39.6,13.7z M54.6,17.5c-3.5,3.5-3.5,9.3,0,12.8c1,1,2.6,1,3.5,0c1-1,1-2.6,0-3.5
	c-1.6-1.6-1.6-4.1,0-5.7l0,0c3.5-3.5,3.5-9.3,0-12.8c0,0,0,0,0,0c-1-1-2.6-1-3.5,0s-1,2.6,0,3.5C56.2,13.3,56.2,15.9,54.6,17.5
	C54.6,17.5,54.6,17.5,54.6,17.5z M24.6,30.3c1,1,2.6,1,3.5,0s1-2.6,0-3.5c-1.6-1.6-1.6-4.1,0-5.7l0,0c3.5-3.5,3.5-9.3,0-12.8
	c-1-1-2.6-1-3.5,0s-1,2.6,0,3.5l0,0c1.6,1.6,1.6,4.1,0,5.7l0,0C21.1,21,21.1,26.7,24.6,30.3L24.6,30.3z M0,86.3
	c0-1.4,1.1-2.5,2.5-2.5H20c-5.3-3.4-9.3-8.6-11.3-14.6c-0.2-0.5-0.3-1-0.5-1.5C5.9,59.8,4.5,51.7,4,43.6c-0.1-1.9,0.6-3.7,1.9-5.1
	c1.3-1.4,3.1-2.2,5-2.2h56.2c1.9,0,3.7,0.8,5,2.2c1.3,1.4,2,3.2,1.8,5.1c-0.1,1.7-0.3,3.5-0.5,5.3h1.5c6.6,0,12,5.4,12,12
	c0,1-0.1,1.9-0.4,2.9c-1.3,5.3-6.1,9.1-11.6,9.1h-7.2c-2.3,4.4-5.7,8.2-9.9,10.9h17.1c1.4,0,2.5,1.1,2.5,2.5s-1.1,2.5-2.5,2.5H2.5
	C1.1,88.7,0,87.6,0,86.3L0,86.3z M69.7,67.8H75c3.2,0,6-2.2,6.8-5.3c0.9-3.8-1.4-7.5-5.1-8.5c-0.5-0.1-1.1-0.2-1.7-0.2h-2.2
	c-0.7,4.7-1.7,9.3-3,13.8L69.7,67.8z M36.1,83.5h5.8c10.6,0.1,20-6.9,23.1-17l0.1-0.2c2.1-7.5,3.5-15.2,4-23c0-0.5-0.2-1-0.5-1.3
	c-0.4-0.4-0.9-0.6-1.4-0.6H10.9c-0.5,0-1,0.2-1.4,0.6C9.1,42.3,9,42.8,9,43.3c0.5,7.8,1.9,15.5,4,23c0.1,0.4,0.3,0.8,0.4,1.3
	C16.7,77.2,25.9,83.7,36.1,83.5z"/>
</svg>
