<?xml version="1.0" encoding="utf-8"?>
<!-- Generator: Adobe Illustrator 21.1.0, SVG Export Plug-In . SVG Version: 6.00 Build 0)  -->
<svg version="1.1" id="Слой_1" xmlns="http://www.w3.org/2000/svg" xmlns:xlink="http://www.w3.org/1999/xlink" x="0px" y="0px"
	 viewBox="0 0 274 200" style="enable-background:new 0 0 274 200;" xml:space="preserve">
<style type="text/css">
	.st0{fill:none;}
</style>
<g>
	<path class="st0" d="M10,62C80-8,194-8,264,62"/>
	<path d="M17,69C8,79-6,65,3,55c74-73,194-73,268,0c9,10-5,24-14,14C191,4,83,4,17,69z"/>
	<path class="st0" d="M49,101c49-48,127-48,176,0"/>
	<path d="M56,108c-9,10-23-4-14-14c52-52,138-52,190,0c9,10-5,24-14,14C174,64,101,64,56,108z"/>
	<path class="st0" d="M88,140c27-27,71-27,98,0"/>
	<path d="M95,147c-9,10-23-4-14-14c31-30,81-30,112,0c9,10-5,24-14,14C156,125,118,125,95,147z"/>
	<path d="M137,164c10,0,18,8,18,18s-8,18-18,18s-18-8-18-18S127,164,137,164z"/>
</g>
</svg>
