<svg version="1.1" xmlns="http://www.w3.org/2000/svg" xmlns:xlink="http://www.w3.org/1999/xlink" x="0px" y="0px"
	 viewBox="0 0 89.7 80.4" style="enable-background:new 0 0 89.7 80.4;" xml:space="preserve">
<style type="text/css">
	.st0{fill:#5b815d;}
</style>
<path class="st0" d="M89.7,31.7c0-7.6-5.1-14.1-12.2-16.2C76.7,7,69.5,0.2,60.7,0.2c-3.1,0-6.1,0.8-8.7,2.4c-2.6-1.6-5.6-2.4-8.7-2.4
	c-3.1,0-6.1,0.8-8.7,2.4c-2.6-1.6-5.6-2.4-8.7-2.4c-9.2,0-16.6,7.4-16.8,16.5C3.6,19.5,0,25.3,0,31.7c0,7.5,5,13.9,11.8,16.1
	l6.7,32.6h49.8l6.5-32C83.2,47.4,89.7,40.3,89.7,31.7z M63.4,74.4H23.4l-5.3-25.9c2.8-0.2,5.4-1.1,7.7-2.6l2.1,22.9l6-0.5L32,48.2
	c1.1,0.2,2.3,0.4,3.5,0.4c1.7,0,3.3-0.3,4.9-0.7v20.8h6V46.6c2.4,1.2,5,1.9,7.8,1.9c0.2,0,0.4,0,0.6,0l-1.8,19.8l6,0.5l2-21.7
	c0.9-0.4,1.8-0.9,2.6-1.4c1.6,1.1,3.4,1.9,5.3,2.3L63.4,74.4z M72.8,42.6c-2.7,0-5.3-1-7.3-2.9l-2-1.9l-2,1.9
	c-2,1.8-4.6,2.9-7.3,2.9c-2.7,0-5.3-1-7.3-2.9l-2-1.9l-2,1.9c-2,1.8-4.6,2.9-7.3,2.9c-2.7,0-5.3-1-7.3-2.9l-2-1.9l-2,1.9
	c-2,1.8-4.6,2.9-7.3,2.9c-6,0-10.8-4.9-10.8-10.8c0-4.6,2.9-8.7,7.3-10.2l2.3-0.8l-0.3-2.4c-0.1-0.5-0.1-0.9-0.1-1.3
	c0-6,4.9-10.8,10.8-10.8c2.5,0,4.8,0.8,6.8,2.4l1.9,1.5l1.9-1.5c1.9-1.6,4.3-2.4,6.8-2.4s4.8,0.8,6.8,2.4l1.9,1.5L54,8.6
	c1.9-1.6,4.3-2.4,6.8-2.4c6,0,10.8,4.9,10.8,10.8c0,0.2,0,0.4,0,0.6l-0.2,3l2.8,0.3c5.4,0.7,9.5,5.3,9.5,10.7
	C83.7,37.7,78.8,42.6,72.8,42.6z"/>
<rect class="st0" x="23" y="18.6" transform="matrix(0.7311 -0.6823 0.6823 0.7311 -8.0558 23.6678)" width="6" height="6.8"/>
<rect class="st0" x="41.7" y="25.6" transform="matrix(1.659937e-02 -0.9999 0.9999 1.659937e-02 14.8775 73.2267)" width="6" height="6.8"/>
<rect class="st0" x="57.2" y="15.4" transform="matrix(0.3781 -0.9258 0.9258 0.3781 20.7075 67.5957)" width="6.8" height="6"/>
</svg>
