<?xml version="1.0" encoding="utf-8"?>
<!-- Generator: Adobe Illustrator 21.1.0, SVG Export Plug-In . SVG Version: 6.00 Build 0)  -->
<svg version="1.1" id="Слой_1" xmlns="http://www.w3.org/2000/svg" xmlns:xlink="http://www.w3.org/1999/xlink" x="0px" y="0px"
	 viewBox="0 0 92.3 82.4" style="enable-background:new 0 0 92.3 82.4;" xml:space="preserve">
<title>14</title>
<g>
	<path d="M61.3,0.4H31.5c-8.8,0-16,7.2-16,16v12.2h-1.8C6.1,28.9,0.2,35.3,0.5,43c0.2,5.2,3.4,9.9,8.2,12v10c0,4.1,2.8,7.7,6.8,8.7
		v5.7c0,1.7,1.3,3,3,3c1.6,0.1,2.9-1.2,3-2.8c0-0.1,0-0.1,0-0.2v-5.5h49.8V79c0,1.7,1.3,3,3,3c1.6-0.1,2.9-1.4,3-3v-5.4
		c4-1,6.8-4.6,6.8-8.7v-10c7-3.1,10.1-11.2,7-18.2c-2.1-4.8-6.8-8-12-8.2h-1.8V16.4C77.3,7.5,70.1,0.4,61.3,0.4z M21.5,16.4
		c0-5.5,4.5-10,10-10h29.8c5.5,0,10,4.5,10,10v14.2c-0.8,0.5-1.6,1.1-2.3,1.8c-1.5,1.4-2.6,3.1-3.3,5H27.1c-0.7-1.9-1.8-3.6-3.3-5
		c-0.7-0.7-1.5-1.3-2.3-1.8L21.5,16.4z M28,43.4h36.8v8.9H28V43.4z M86.4,41.5c0.4,3.9-2.2,7.5-6,8.4c-1.3,0.3-2.3,1.5-2.3,2.9v12.1
		c0,1.7-1.3,3-3,3H17.7c-1.7,0-3-1.3-3-3V52.8c0-1.4-1-2.6-2.3-2.9c-4.2-1-6.8-5.1-5.9-9.3c0.8-3.5,3.8-5.9,7.4-6.1h0.3
		c2,0,3.9,0.8,5.4,2.2c1.5,1.5,2.4,3.5,2.4,5.6v13c-0.1,1.6,1.2,2.9,2.8,3c0.1,0,0.1,0,0.2,0h42.8c1.6,0.1,2.9-1.2,3-2.8
		c0-0.1,0-0.1,0-0.2v-13c0.1-4.4,3.6-7.9,8-7.8c0,0,0.1,0,0.1,0C82.8,34.6,85.9,37.6,86.4,41.5z"/>
</g>
</svg>
